# Alias OBJ Model File
# Exported from SketchUp, (c) 2000-2012 Trimble Navigation Limited
# File units = meters

mtllib detail.mtl

g Mesh1 Model

usemtl _1
v 0.5 0.1 0.5
vt 0.5 0.1
vn 0 0 1
v -0.5 0 0.5
vt -0.5 0
v 0.5 0 0.5
vt 0.5 0
f 1/1/1 2/2/1 3/3/1

v -0.5 0.1 0.5
vt -0.5 0.1
f 2/2/1 1/1/1 4/4/1

vt 0.5 -0.5
vn 0 1 -0
v -0.5 0.1 0.1
vt -0.5 -0.1
vt -0.5 -0.5
f 1/5/2 5/6/2 4/7/2

v 0.5 0.1 0.1
vt 0.5 -0.1
f 5/6/2 1/5/2 6/8/2

vn 1 0 -0
v 0.5 0 -0.5
vt -0.1 0.1
f 1/4/3 7/3/3 6/9/3

f 7/3/3 1/4/3 3/2/3

vn 0 -1 -0
vt -0.5 0.5
f 2/5/4 7/10/4 3/7/4

v -0.5 0 -0.5
vt 0.5 0.5
f 7/10/4 2/5/4 8/11/4

vn -1 0 -0
vt 0.1 0.1
f 2/3/5 5/12/5 8/2/5

f 5/12/5 2/3/5 4/1/5

v -0.5 0.1 -0.1
f 8/2/5 5/12/5 9/9/5

vt 0.1 0.0338814
vn -0.991445 0.130526 -0
v -0.482963 0.22941 -0.1
vt -0.1 0.164408
vn -0.965926 0.258819 -0
vt -0.1 0.0338814
f 5/13/6 10/14/7 9/15/6

v -0.482963 0.22941 0.1
vt 0.1 0.164408
f 10/14/7 5/13/6 11/16/7

v 0.482963 0.22941 0.1
vt 0.482963 0.22941
vt -0.482963 0.22941
f 5/4/1 12/17/1 11/18/1

f 12/17/1 5/4/1 6/1/1

v 0.5 0.1 -0.1
vn 0.991445 0.130526 -0
vn 0.965926 0.258819 -0
f 13/13/8 12/14/9 6/15/8

v 0.482963 0.22941 -0.1
f 12/14/9 13/13/8 14/16/9

vn 0 0 -1
f 13/4/10 10/17/10 14/18/10

f 10/17/10 13/4/10 9/1/10

v -0.5 0.1 -0.5
f 13/1/2 15/10/2 9/4/2

v 0.5 0.1 -0.5
f 15/10/2 13/1/2 16/11/2

f 13/12/3 7/3/3 16/1/3

f 6/9/3 7/3/3 13/12/3

f 7/2/10 15/1/10 16/4/10

f 15/1/10 7/2/10 8/3/10

f 8/2/5 9/9/5 15/4/5

v 0.433013 0.35 -0.1
vt -0.433013 0.35
f 14/18/10 10/17/10 17/19/10

v -0.433013 0.35 -0.1
vt 0.433013 0.35
f 17/19/10 10/17/10 18/20/10

vt 0.1 0.0271249
vt -0.1 0.157651
vn -0.866025 0.5 -0
vt -0.1 0.0271249
f 11/21/7 18/22/11 10/23/7

v -0.433013 0.35 0.1
vt 0.1 0.157651
f 18/22/11 11/21/7 19/24/11

v 0.433013 0.35 0.1
f 11/18/1 20/20/1 19/19/1

f 11/18/1 12/17/1 20/20/1

vn 0.866025 0.5 -0
f 14/21/9 20/22/12 12/23/9

f 20/22/12 14/21/9 17/24/12

vt 0.1 0.0140722
v 0.353553 0.453553 0.1
vt -0.1 0.144598
vn 0.707107 0.707107 -0
vt -0.1 0.0140722
f 17/25/12 21/26/13 20/27/12

v 0.353553 0.453553 -0.1
vt 0.1 0.144598
f 21/26/13 17/25/12 22/28/13

v -0.353553 0.453553 -0.1
vt 0.353553 0.453553
vt -0.353553 0.453553
f 17/19/10 23/29/10 22/30/10

f 17/19/10 18/20/10 23/29/10

vn -0.707107 0.707107 2.63881e-017
f 19/25/11 23/26/14 18/27/11

v -0.353553 0.453553 0.1
f 23/26/14 19/25/11 24/28/14

f 19/19/1 21/29/1 24/30/1

f 19/19/1 20/20/1 21/29/1

v 0.25 0.533013 0.1
vt 0.25 0.533013
f 24/30/1 21/29/1 25/31/1

vt -0.1 -0.00438695
v 0.25 0.533013 -0.1
vt 0.1 0.126139
vn 0.5 0.866025 -0
vt -0.1 0.126139
f 21/32/13 26/33/15 25/34/15

vt 0.1 -0.00438695
f 26/33/15 21/32/13 22/35/13

v -0.25 0.533013 -0.1
vt -0.25 0.533013
f 22/30/10 27/31/10 26/36/10

f 22/30/10 23/29/10 27/31/10

v -0.25 0.533013 0.1
vn -0.5 0.866025 4.85057e-017
f 23/32/14 28/33/16 27/34/16

f 28/33/16 23/32/14 24/35/14

f 24/30/1 25/31/1 28/36/1

v -0.12941 0.582963 0.1
vt -0.12941 0.582963
f 28/36/1 25/31/1 29/37/1

v 0.12941 0.582963 0.1
vt 0.12941 0.582963
f 29/37/1 25/31/1 30/38/1

vt -0.1 -0.0269948
v 0.12941 0.582963 -0.1
vt 0.1 0.103531
vn 0.258819 0.965926 -0
vt -0.1 0.103531
f 25/39/15 31/40/17 30/41/17

vt 0.1 -0.0269948
f 31/40/17 25/39/15 26/42/15

v -0.12941 0.582963 -0.1
f 26/36/10 32/38/10 31/37/10

f 26/36/10 27/31/10 32/38/10

vn -0.258819 0.965926 2.21176e-017
f 28/42/16 32/41/18 27/39/16

f 32/41/18 28/42/16 29/40/18

v 0 0.6 0.1
vt 0.1 0.0783157
vn -2.09963e-016 1 -0
vt -0.1 -0.0522105
vt 0.1 -0.0522105
f 33/43/19 32/44/18 29/45/18

v 0 0.6 -0.1
vt -0.1 0.0783157
f 32/44/18 33/43/19 34/46/19

f 30/44/17 34/43/19 33/46/19

f 34/43/19 30/44/17 31/45/17

vt 0 0.6
f 31/37/10 32/38/10 34/47/10

f 29/37/1 30/38/1 33/47/1

