# Alias OBJ Model File
# Exported from SketchUp, (c) 2000-2012 Trimble Navigation Limited
# File units = meters

mtllib lower.mtl

g Mesh1 Model

usemtl iron
v -0.0699546 -0.03 -0.0298176
vt -0.149088 -0.15
vn -1 0 -0
v -0.0699546 -0.05 0.02974
vt 0.1487 -0.25
v -0.0699546 -0.03 0.02974
vt 0.1487 -0.15
f 1/1/1 2/2/1 3/3/1

v -0.0699546 -0.0675035 0.0240528
vt 0.120264 -0.337518
f 2/2/1 1/1/1 4/4/1

v -0.0699546 -0.0783213 0.00916336
vt 0.0458168 -0.391607
f 4/4/1 1/1/1 5/5/1

v -0.0699546 -0.0783213 -0.00924094
vt -0.0462047 -0.391607
f 5/5/1 1/1/1 6/6/1

v -0.0699546 -0.0675035 -0.0241303
vt -0.120652 -0.337518
f 6/6/1 1/1/1 7/7/1

v -0.0699546 -0.05 -0.0298176
vt -0.149088 -0.25
f 7/7/1 1/1/1 8/8/1

vt 0.349773 -0.15
vn 0 0 -1
v -0.0499546 -0.05 -0.0298176
vt 0.249773 -0.25
vt 0.349773 -0.25
f 1/9/2 9/10/2 8/11/2

v -0.0499546 -0.03 -0.0298176
vt 0.249773 -0.15
f 9/10/2 1/9/2 10/12/2

v -0.0699546 -0.01 -0.0298176
vt 0.349773 -0.05
f 10/12/2 1/9/2 11/13/2

v -0.0899546 -0.03 -0.0198176
vt 0.357976 -0.15
vn -0.447214 -3.44161e-031 -0.894427
vt 0.246172 -0.05
vt 0.246172 -0.15
f 12/14/3 11/15/3 1/16/3

v -0.0899546 -0.01 -0.0198176
vt 0.357976 -0.05
f 11/15/3 12/14/3 13/17/3

v -0.0899546 -0.03 0.01974
vt 0.0987 -0.15
vt -0.0990879 -0.05
vt -0.0990879 -0.15
f 14/18/1 13/19/1 12/20/1

v -0.0899546 -0.01 0.01974
vt 0.0987 -0.05
f 13/19/1 14/18/1 15/21/1

vt -0.358149 -0.15
vn -0.447214 -7.24172e-031 0.894427
v -0.0699546 -0.01 0.02974
vt -0.246346 -0.05
vt -0.358149 -0.05
f 14/22/4 16/23/4 15/24/4

vt -0.246346 -0.15
f 16/23/4 14/22/4 3/25/4

vt 0.449773 -0.0987
vn -2.81997e-016 -1 -1.86675e-033
vt 0.349773 0.149088
vt 0.349773 -0.1487
f 14/26/5 1/27/5 3/28/5

vt 0.449773 0.0990879
f 1/27/5 14/26/5 12/29/5

vt -0.349773 -0.15
vn 0 0 1
v 0.0700454 -0.01 0.02974
vt 0.350227 -0.05
vt -0.349773 -0.05
f 3/30/6 17/31/6 16/32/6

v -0.0499546 -0.03 0.02974
vt -0.249773 -0.15
f 18/33/6 17/31/6 3/30/6

v 0.0500454 -0.03 0.02974
vt 0.250227 -0.15
f 19/34/6 17/31/6 18/33/6

v 0.0700454 -0.03 0.02974
vt 0.350227 -0.15
f 19/34/6 20/35/6 17/31/6

v 0.0500454 -0.05 0.02974
vt 0.250227 -0.25
f 21/36/6 20/35/6 19/34/6

v 0.0700454 -0.05 0.02974
vt 0.350227 -0.25
f 20/35/6 21/36/6 22/37/6

v 0.0500454 -0.0675035 0.0240528
vt 0.250227 -0.283835
vn 0 -0.587785 0.809017
vt 0.350227 -0.191813
vn 0 -0.309017 0.951057
vt 0.250227 -0.191813
f 23/38/7 22/39/8 21/40/8

v 0.0700454 -0.0675035 0.0240528
vt 0.350227 -0.283835
f 22/39/8 23/38/7 24/41/7

vt 0.250227 -0.101092
v 0.0700454 -0.0783213 0.00916336
vt 0.350227 -0.193114
vn 0 -0.951057 0.309017
vt 0.350227 -0.101092
f 23/42/7 25/43/9 24/44/7

v 0.0500454 -0.0783213 0.00916336
vt 0.250227 -0.193114
f 25/43/9 23/42/7 26/45/9

v 0.0500454 -0.03 -0.0298176
f 23/4/1 27/1/1 26/5/1

f 21/2/1 27/1/1 23/4/1

f 27/1/1 21/2/1 19/3/1

vt 0.249773 -0.1487
vn 0 -1 -0
vt -0.250227 0.149088
vt -0.250227 -0.1487
f 18/46/10 27/47/10 19/48/10

vt 0.249773 0.149088
f 27/47/10 18/46/10 10/49/10

vt -0.1487 -0.15
vn 1 0 -0
v -0.0499546 -0.0675035 0.0240528
vt -0.120264 -0.337518
vt 0.149088 -0.15
f 18/50/11 28/51/11 10/52/11

v -0.0499546 -0.05 0.02974
vt -0.1487 -0.25
f 28/51/11 18/50/11 29/53/11

vt -0.349773 -0.25
vt -0.249773 -0.25
f 18/33/6 2/54/6 29/55/6

f 2/54/6 18/33/6 3/30/6

vt -0.349773 -0.283835
vn 1.35291e-031 -0.587785 0.809017
vt -0.249773 -0.191813
vt -0.349773 -0.191813
f 4/56/12 29/57/8 2/58/8

vt -0.249773 -0.283835
f 29/57/8 4/56/12 28/59/12

vt -0.349773 -0.101092
v -0.0499546 -0.0783213 0.00916336
vt -0.249773 -0.193114
vn 1.35291e-031 -0.951057 0.309017
vt -0.249773 -0.101092
f 4/60/12 30/61/13 28/62/12

vt -0.349773 -0.193114
f 30/61/13 4/60/12 5/63/13

vt 0.349773 -0.0458168
v -0.0499546 -0.0783213 -0.00924094
vt 0.249773 0.0462047
vn -9.52026e-018 -0.951057 -0.309017
vt 0.249773 -0.0458168
f 5/64/13 31/65/14 30/66/13

vt 0.349773 0.0462047
f 31/65/14 5/64/13 6/67/14

vt 0.349773 -0.1928
v -0.0499546 -0.0675035 -0.0241303
vt 0.249773 -0.100779
vn -2.24743e-018 -0.587785 -0.809017
vt 0.249773 -0.1928
f 6/68/14 32/69/15 31/70/14

vt 0.349773 -0.100779
f 32/69/15 6/68/14 7/71/15

vt 0.349773 -0.191693
vn 1.38338e-017 -0.309017 -0.951057
vt 0.249773 -0.283715
vt 0.349773 -0.283715
f 8/72/16 32/73/15 7/74/15

vt 0.249773 -0.191693
f 32/73/15 8/72/16 9/75/16

vt 0.120652 -0.337518
vt 0.149088 -0.25
f 10/52/11 32/76/11 9/77/11

vt 0.0462047 -0.391607
f 10/52/11 31/78/11 32/76/11

vt -0.0458168 -0.391607
f 10/52/11 30/79/11 31/78/11

f 10/52/11 28/51/11 30/79/11

vt -0.250227 -0.15
f 10/12/2 11/13/2 27/80/2

v 0.0700454 -0.03 -0.0298176
vt -0.350227 -0.15
f 27/80/2 11/13/2 33/81/2

v 0.0700454 -0.01 -0.0298176
vt -0.350227 -0.05
f 33/81/2 11/13/2 34/82/2

v -0.0122897 -0.01 -0.0298176
vt 0.0614484 -0.05
f 34/82/2 11/13/2 35/83/2

vt -0.349773 0.149088
vn 0 1 -0
v -0.0297333 -0.01 -0.0124648
vt -0.148667 0.0623239
vt -0.0614484 0.149088
f 11/84/17 36/85/17 35/86/17

v -0.0297978 -0.01 0.0122315
vt -0.148989 -0.0611574
f 36/85/17 11/84/17 37/87/17

vt -0.349773 -0.1487
f 11/84/17 16/88/17 37/87/17

vt -0.449773 0.0990879
f 13/89/17 16/88/17 11/84/17

vt -0.449773 -0.0987
f 16/88/17 13/89/17 15/90/17

v -0.0123806 -0.01 0.02974
vt -0.0619028 -0.1487
f 37/87/17 16/88/17 38/91/17

v 0.0123806 -0.01 0.02974
vt 0.0619028 -0.05
vt -0.0619028 -0.05
f 16/32/6 39/92/6 38/93/6

f 16/32/6 17/31/6 39/92/6

vt 0.350227 -0.1487
v 0.0298242 -0.01 0.0123872
vt 0.149121 -0.0619361
vt 0.0619028 -0.1487
f 17/94/17 40/95/17 39/96/17

v 0.0298887 -0.01 -0.0123091
vt 0.149444 0.0615453
f 40/95/17 17/94/17 41/97/17

vt 0.350227 0.149088
f 34/98/17 41/97/17 17/94/17

v 0.0124714 -0.01 -0.0298176
vt 0.0623572 0.149088
f 41/97/17 34/98/17 42/99/17

vt -0.0623572 -0.05
f 34/82/2 35/83/2 42/100/2

v -0.0122897 0 -0.0298176
vt 0.0614484 0
f 43/101/2 42/100/2 35/83/2

v 0.0124714 0 -0.0298176
vt -0.0623572 0
f 42/100/2 43/101/2 44/102/2

v 0.0123806 0 0.02974
f 43/86/17 45/96/17 44/99/17

v -0.0123806 0 0.02974
f 43/86/17 46/91/17 45/96/17

v -0.0297333 0 -0.0124648
f 47/85/17 46/91/17 43/86/17

v -0.0297978 0 0.0122315
f 46/91/17 47/85/17 48/87/17

vt -0.0619354 0
vn -0.922877 0 -0.385095
vt 0.0615464 -0.05
vn -0.924876 0 0.380269
vt 0.0615464 0
f 47/103/18 37/104/19 48/105/19

vt -0.0619354 -0.05
f 37/104/19 47/103/18 36/106/18

vt 0.061443 0
vt -0.0615814 -0.05
vn -0.705257 0 -0.708951
vt 0.061443 -0.05
f 47/107/18 35/108/20 36/109/18

vt -0.0615814 0
f 35/108/20 47/107/18 43/110/20

vt 0.0617636 -0.05
vn -0.708951 0 0.705257
vt -0.0617181 0
vt -0.0617181 -0.05
f 38/111/21 48/112/19 37/113/19

vt 0.0617636 0
f 48/112/19 38/111/21 46/114/21

vt 0.0619028 0
vt -0.0619028 0
f 38/93/6 45/115/6 46/116/6

f 45/115/6 38/93/6 39/92/6

vt -0.0609857 -0.05
vn 0.705257 0 0.708951
v 0.0298242 0 0.0123872
vt 0.0620388 0
vn 0.922877 0 0.385095
vt -0.0609857 0
f 39/117/22 49/118/23 45/119/22

vt 0.0620388 -0.05
f 49/118/23 39/117/22 40/120/23

vt 0.0619354 -0.05
vn 0.924876 0 -0.380269
vt -0.0615464 0
vt -0.0615464 -0.05
f 41/121/24 49/122/23 40/123/23

v 0.0298887 0 -0.0123091
vt 0.0619354 0
f 49/122/23 41/121/24 50/124/24

vt 0.0617181 -0.05
vn 0.708951 0 -0.705257
vt -0.0617636 0
vt -0.0617636 -0.05
f 42/125/25 50/126/24 41/127/24

vt 0.0617181 0
f 50/126/24 42/125/25 44/128/25

f 44/99/17 49/95/17 50/97/17

f 44/99/17 45/96/17 49/95/17

v 0.0900454 -0.01 0.01974
vt 0.450227 -0.0987
f 34/98/17 17/94/17 51/129/17

vt 0.246752 -0.05
vn 0.447214 -1.86421e-031 0.894427
v 0.0900454 -0.03 0.01974
vt 0.358555 -0.15
vt 0.358555 -0.05
f 17/130/26 52/131/26 51/132/26

vt 0.246752 -0.15
f 52/131/26 17/130/26 20/133/26

vt -0.350227 -0.1487
vn 2.81997e-016 -1 -1.86675e-033
v 0.0900454 -0.03 -0.0198176
vt -0.450227 0.0990879
vt -0.450227 -0.0987
f 20/134/27 53/135/27 52/136/27

vt -0.350227 0.149088
f 53/135/27 20/134/27 33/137/27

f 20/50/11 24/51/11 33/52/11

f 24/51/11 20/50/11 22/53/11

f 33/52/11 24/51/11 25/79/11

v 0.0700454 -0.0783213 -0.00924094
f 33/52/11 25/79/11 54/78/11

vt -0.250227 -0.0458168
vt -0.350227 0.0462047
vn 0 -0.951057 -0.309017
vt -0.350227 -0.0458168
f 26/138/9 54/139/28 25/140/9

v 0.0500454 -0.0783213 -0.00924094
vt -0.250227 0.0462047
f 54/139/28 26/138/9 55/141/28

f 26/5/1 27/1/1 55/6/1

v 0.0500454 -0.0675035 -0.0241303
f 55/6/1 27/1/1 56/7/1

v 0.0500454 -0.05 -0.0298176
f 56/7/1 27/1/1 57/8/1

v 0.0700454 -0.05 -0.0298176
vt -0.350227 -0.25
vt -0.250227 -0.25
f 27/80/2 58/142/2 57/143/2

f 58/142/2 27/80/2 33/81/2

v 0.0700454 -0.0675035 -0.0241303
f 33/52/11 59/76/11 58/77/11

f 33/52/11 54/78/11 59/76/11

vt -0.250227 -0.1928
vt -0.350227 -0.100779
vn 0 -0.587785 -0.809017
vt -0.350227 -0.1928
f 55/144/28 59/145/29 54/146/28

vt -0.250227 -0.100779
f 59/145/29 55/144/28 56/147/29

vt -0.250227 -0.191693
vn 0 -0.309017 -0.951057
vt -0.350227 -0.283715
vt -0.250227 -0.283715
f 57/148/30 59/149/29 56/150/29

vt -0.350227 -0.191693
f 59/149/29 57/148/30 58/151/30

vt -0.246579 -0.05
vn 0.447214 2.86801e-031 -0.894427
vt -0.358382 -0.15
vt -0.246579 -0.15
f 34/152/31 53/153/31 33/154/31

v 0.0900454 -0.01 -0.0198176
vt -0.358382 -0.05
f 53/153/31 34/152/31 60/155/31

vt 0.450227 0.0990879
f 34/98/17 51/129/17 60/156/17

vt -0.0987 -0.05
vt 0.0990879 -0.15
vt 0.0990879 -0.05
f 51/157/11 53/158/11 60/159/11

vt -0.0987 -0.15
f 53/158/11 51/157/11 52/160/11

